<svg fill="none" height="24" viewBox="0 0 24 24" width="24" xmlns="http://www.w3.org/2000/svg"><g fill="#000"><path d="m14.75 22.75h-4.5v-7.25h-.95001c-.58 0-1.04999-.47-1.04999-1.05v-1.9c0-.58.46999-1.05 1.04999-1.05h.95001v-2.5c0-2.07 1.68-3.75 3.75-3.75h2.7c.58 0 1.05.46999 1.05 1.04999v2.40002c0 .58-.47 1.04999-1.05 1.04999h-1.95v1.75h1.88c.32 0 .61.14.81.38s.28.56.22.87l-.38 1.9c-.1.49-.53.84-1.03.84h-1.5zm-3-1.5h1.5v-7.25h2.64l.2-1h-2.83v-3.70001c0-.58.47-1.04999 1.05-1.04999h1.95v-1.5h-2.26c-1.24 0-2.25 1.01-2.25 2.25v4h-2v1h2z"/><path d="m15 22.75h-6c-5.43 0-7.75-2.32-7.75-7.75v-6c0-5.43 2.32-7.75 7.75-7.75h6c5.43 0 7.75 2.32 7.75 7.75v6c0 5.43-2.32 7.75-7.75 7.75zm-6-20c-4.61 0-6.25 1.64-6.25 6.25v6c0 4.61 1.64 6.25 6.25 6.25h6c4.61 0 6.25-1.64 6.25-6.25v-6c0-4.61-1.64-6.25-6.25-6.25z"/></g></svg>